<svg xmlns="http://www.w3.org/2000/svg" width="586.485" height="224.487" viewBox="0 0 586.485 224.487">
  <g id="svgexport-8" transform="translate(-3.306 -42.789)">
    <path id="Path_16" data-name="Path 16" d="M12.927,267.023a9.531,9.531,0,0,1-6.2-2.274A9.637,9.637,0,0,1,5.574,251.17L110.252,127.045a9.637,9.637,0,0,1,10-3.055l40.957,11.661,77.954-89.5a9.637,9.637,0,0,1,7.18-3.306,10.707,10.707,0,0,1,7.237,3.18l36.891,40.861,15.1-13.492a9.454,9.454,0,0,1,7.71-2.361A9.637,9.637,0,0,1,320.1,75.41l61.446,96.611L434,127.122a9.637,9.637,0,0,1,13.492.964l49.766,55.982,10.36-9.319a9.945,9.945,0,0,1,7.025-2.457,9.637,9.637,0,0,1,6.678,3.277l66.091,75.525A9.637,9.637,0,1,1,572.9,263.775L513.243,195.6l-10.3,9.271a9.839,9.839,0,0,1-6.987,2.457,9.637,9.637,0,0,1-6.669-3.257L439.366,147.9l-53.7,45.978a9.637,9.637,0,0,1-14.4-2.149L309.96,95.358l-13.781,12.335a9.637,9.637,0,0,1-13.579-.723L246.558,67.035l-74.832,85.914a9.7,9.7,0,0,1-9.9,2.891l-40.861-11.564L20.309,263.592A9.637,9.637,0,0,1,12.927,267.023Z" transform="translate(0 0.205)" fill="#4b4b4d"/>
    <path id="Path_17" data-name="Path 17" d="M76.783,232.737h-.231a9.637,9.637,0,0,1-8.538-5.628L27.027,137.484a9.638,9.638,0,0,1,17.53-8.018l32.766,71.6L156.038,48.255a9.637,9.637,0,1,1,17.125,8.828L85.341,227.513A9.637,9.637,0,0,1,76.783,232.737Zm258.774,19.274a9.638,9.638,0,0,1-7.961-4.2l-37.988-55.6a9.646,9.646,0,0,1,15.93-10.88l25.278,37.025,18.214-85.712a9.645,9.645,0,0,1,18.869,4.009L344.992,244.378a9.637,9.637,0,0,1-7.575,7.449,9.288,9.288,0,0,1-1.86.183Z" transform="translate(81.827 0)" fill="#4b4b4d"/>
  </g>
</svg>
